<?xml version="1.0" encoding="utf-8"?>
<!-- Generator: Adobe Illustrator 26.5.0, SVG Export Plug-In . SVG Version: 6.00 Build 0)  -->
<svg version="1.1" id="Layer_1" xmlns="http://www.w3.org/2000/svg" xmlns:xlink="http://www.w3.org/1999/xlink" x="0px" y="0px"
	 viewBox="0 0 500 500" style="enable-background:new 0 0 500 500;" xml:space="preserve">
<style type="text/css">
	.st0{fill:#FFFFFF;stroke:#000000;stroke-width:3;stroke-linecap:round;stroke-linejoin:round;stroke-miterlimit:10;}
	.st1{fill:#FFFFFF;stroke:#000000;stroke-linecap:round;stroke-linejoin:round;stroke-miterlimit:10;}
	.st2{font-family:'InputSans-Light';}
	.st3{font-size:38.5579px;}
	.st4{fill:none;stroke:#000000;stroke-linecap:round;stroke-linejoin:round;stroke-miterlimit:10;}
</style>
<g>
	<path class="st0" d="M434.9,419.1l-51.5-65.5c-3.4-4.3-8.6-6.8-14-6.8H130.7c-5.5,0-10.7,2.5-14.1,6.8l-51.5,65.5
		c-1.9,2.4-2.5,5.1-2.1,7.7l0,0v16.4c0,4.2,3.4,7.6,7.6,7.6H80h349.4c4.2,0,7.6-3.4,7.6-7.6v-16.4l0,0
		C437.3,424.2,436.7,421.5,434.9,419.1z"/>
	<line class="st0" x1="78.5" y1="422.8" x2="421.5" y2="422.8"/>
</g>
<g>
	<g>
		<path class="st1" d="M359.6,356.7H145l10.3-12.8c0,0,194-0.3,193.7-0.1L359.6,356.7z"/>
	</g>
	<line class="st1" x1="144.3" y1="362.4" x2="145" y2="356.7"/>
	<line class="st1" x1="360.4" y1="362.9" x2="359.7" y2="357.1"/>
	<g>
		<line class="st1" x1="167.4" y1="344.3" x2="164.2" y2="356"/>
		<line class="st1" x1="181.9" y1="344.3" x2="181" y2="355.8"/>
		<line class="st1" x1="197.2" y1="344.3" x2="197.2" y2="355.9"/>
		<line class="st1" x1="212.8" y1="344.3" x2="212.8" y2="355.9"/>
		<line class="st1" x1="228.5" y1="344.3" x2="228.5" y2="355.9"/>
		<line class="st1" x1="244.2" y1="344.3" x2="244.2" y2="355.9"/>
		<line class="st1" x1="259.9" y1="344.3" x2="259.9" y2="355.9"/>
		<line class="st1" x1="275.6" y1="344.3" x2="275.6" y2="355.9"/>
		<line class="st1" x1="291.3" y1="344.3" x2="291.3" y2="355.9"/>
		<line class="st1" x1="336.8" y1="344.3" x2="339.9" y2="356"/>
		<line class="st1" x1="322.2" y1="344.3" x2="323.1" y2="355.8"/>
		<line class="st1" x1="307" y1="344.3" x2="307" y2="355.9"/>
	</g>
</g>
<g>
	<g>
		<path class="st1" d="M115.9,395.4l-0.7,8.4c0,0,275.7-0.8,275.2-0.3l-0.7-8.4"/>
		<g>
			<path class="st1" d="M389.6,394.9H116l10.6-13.5c0,0,252.9-0.3,252.5-0.1L389.6,394.9H116"/>
		</g>
	</g>
	<g>
		<line class="st1" x1="163.1" y1="381.8" x2="159.8" y2="394.2"/>
		<line class="st1" x1="178.4" y1="381.8" x2="177.5" y2="394"/>
		<line class="st1" x1="194.5" y1="381.8" x2="194.5" y2="394.1"/>
		<line class="st1" x1="211.1" y1="381.8" x2="211.1" y2="394.1"/>
		<line class="st1" x1="227.7" y1="381.8" x2="227.7" y2="394.1"/>
		<line class="st1" x1="244.2" y1="381.8" x2="244.2" y2="394.1"/>
		<line class="st1" x1="260.8" y1="381.8" x2="260.8" y2="394.1"/>
		<line class="st1" x1="277.3" y1="381.8" x2="277.3" y2="394.1"/>
		<line class="st1" x1="293.9" y1="381.8" x2="293.9" y2="394.1"/>
		<line class="st1" x1="341.9" y1="381.8" x2="345.2" y2="394.2"/>
		<line class="st1" x1="326.6" y1="381.8" x2="327.5" y2="394"/>
		<line class="st1" x1="310.5" y1="381.8" x2="310.5" y2="394.1"/>
	</g>
</g>
<g>
	<g>
		<path class="st1" d="M377.1,374.9H127.5l11.1-13.5c0,0,227.6-0.3,227.2-0.1L377.1,374.9H127.5"/>
	</g>
	<line class="st1" x1="126.8" y1="381.2" x2="127.5" y2="375.1"/>
	<line class="st1" x1="377.9" y1="381.3" x2="377.2" y2="375.2"/>
	<g>
		<line class="st1" x1="162.6" y1="362.2" x2="159.3" y2="374.5"/>
		<line class="st1" x1="178" y1="362.2" x2="177.1" y2="374.3"/>
		<line class="st1" x1="194.1" y1="362.2" x2="194.1" y2="374.4"/>
		<line class="st1" x1="210.7" y1="362.2" x2="210.7" y2="374.4"/>
		<line class="st1" x1="227.2" y1="362.2" x2="227.2" y2="374.4"/>
		<line class="st1" x1="243.8" y1="362.2" x2="243.8" y2="374.4"/>
		<line class="st1" x1="260.3" y1="362.2" x2="260.3" y2="374.4"/>
		<line class="st1" x1="276.9" y1="362.2" x2="276.9" y2="374.4"/>
		<line class="st1" x1="293.4" y1="362.2" x2="293.4" y2="374.4"/>
		<line class="st1" x1="341.5" y1="362.2" x2="344.8" y2="374.5"/>
		<line class="st1" x1="326.1" y1="362.2" x2="327" y2="374.3"/>
		<line class="st1" x1="310" y1="362.2" x2="310" y2="374.4"/>
	</g>
</g>
<g>
	<path class="st1" d="M160.2,412.3l0.7,7.2c0,0,180.9-0.1,180.7,0.1l1.1-7.4"/>
	<path class="st1" d="M342.4,412.2h-182l8-14c0,0,166.3-0.3,166,0L342.4,412.2h-182"/>
</g>
<g>
	<path class="st0" d="M398.8,86v190.8c0,5.7-6.6,10.4-14.8,10.4H116c-8.1,0-14.8-4.7-14.8-10.5V86c0-5.8,6.6-10.5,14.8-10.5h268
		C392.1,75.5,398.8,80.2,398.8,86z"/>
	<path class="st0" d="M411.3,53.9H88.7c-9.8,0-17.8,5.6-17.8,12.6v229.7c0,6.9,8,12.6,17.8,12.6h322.6c9.8,0,17.8-5.6,17.8-12.6
		V66.5C429.1,59.6,421.1,53.9,411.3,53.9z M398.8,276.8c0,5.7-6.6,10.4-14.8,10.4H116c-8.1,0-14.8-4.7-14.8-10.5V86
		c0-5.8,6.6-10.5,14.8-10.5h268c8.1,0,14.8,4.7,14.8,10.5V276.8z"/>
	<path class="st0" d="M398.8,86v190.8c0,5.7-6.6,10.4-14.8,10.4H116c-8.1,0-14.8-4.7-14.8-10.5V86c0-5.8,6.6-10.5,14.8-10.5h268
		C392.1,75.5,398.8,80.2,398.8,86z"/>
</g>
<text transform="matrix(1 0 0 1 118.3343 189.6317)" class="st2 st3">KawaiiCaps</text>
<line class="st4" x1="381.2" y1="151.2" x2="381.2" y2="198.3"/>
</svg>
