<?xml version="1.0" encoding="utf-8"?>
<!-- Generator: Adobe Illustrator 26.5.0, SVG Export Plug-In . SVG Version: 6.00 Build 0)  -->
<svg version="1.1" xmlns="http://www.w3.org/2000/svg" xmlns:xlink="http://www.w3.org/1999/xlink" x="0px" y="0px"
	 viewBox="0 0 500 500" style="enable-background:new 0 0 500 500;" xml:space="preserve">
<style type="text/css">
	.st0{fill:#FADCA7;stroke:#50362A;stroke-width:3.3794;stroke-linecap:round;stroke-linejoin:round;stroke-miterlimit:10;}
	.st1{fill:none;stroke:#50362A;stroke-width:3.3292;stroke-linecap:round;stroke-linejoin:round;stroke-miterlimit:10;}
	.st2{fill:#FADCA7;stroke:#50362A;stroke-width:3.3292;stroke-linecap:round;stroke-linejoin:round;stroke-miterlimit:10;}
	.st3{fill:#FADCA7;stroke:#000000;stroke-width:0.5;stroke-linecap:round;stroke-linejoin:round;stroke-miterlimit:10;}
	.st4{fill:#FADCA7;}
	.st5{fill:#FADCA7;stroke:#674D42;stroke-width:3.2346;stroke-linecap:round;stroke-linejoin:round;stroke-miterlimit:10;}
	.st6{fill:none;stroke:#674D42;stroke-width:3.3292;stroke-linecap:round;stroke-linejoin:round;stroke-miterlimit:10;}
	.st7{fill:#50362A;stroke:#000000;stroke-width:3;stroke-linecap:round;stroke-linejoin:round;stroke-miterlimit:10;}
	.st8{fill:#50362A;}
	.st9{fill:none;stroke:#50362A;stroke-width:3;stroke-linecap:round;stroke-miterlimit:10;}
	.st10{fill:#FDC7FF;}
	.st11{fill:#FDABFF;}
	.st12{fill:#674D42;stroke:#50362A;stroke-width:3;stroke-linecap:round;stroke-linejoin:round;stroke-miterlimit:10;}
	.st13{fill:#50362A;stroke:#50362A;stroke-width:3;stroke-linecap:round;stroke-linejoin:round;stroke-miterlimit:10;}
</style>
<g id="Layer_1">
</g>
<g id="Layer_2">
	<g>
		<path class="st0" d="M188,137.6"/>
		<path class="st1" d="M258.6,208.9"/>
		<path class="st1" d="M248.1,113.1"/>
		<path class="st2" d="M188,199.5"/>
		<path class="st3" d="M202.6,185.9"/>
		<path class="st3" d="M271.6,109.8"/>
		<path class="st3" d="M57.8,109.8"/>
		<path class="st3" d="M56.9,110.2"/>
		<polygon class="st4" points="63.8,62.3 323.8,28.7 363.2,151.7 25,199.7 		"/>
		<path class="st0" d="M189.7,114.1"/>
		<path class="st5" d="M25.8,193.8c-1.9,4.5-0.2,9.9,4.1,9.9l237.5,0.1c0.7,0,1.3-0.2,1.9-0.5l90.9-50.1c3.2-1.7,3.6-5.3,2.1-9.4
			l0,0"/>
		<line class="st6" x1="249.8" y1="89.6" x2="265.1" y2="190.9"/>
		<path class="st1" d="M361.5,142.2"/>
		<line class="st6" x1="362.4" y1="144.3" x2="322" y2="22.5"/>
		<path class="st2" d="M189.7,175.9"/>
		<polyline class="st5" points="25.7,193.7 64.7,63 25.4,195.1 		"/>
		<path class="st3" d="M204.3,162.3"/>
		<path class="st7" d="M53,60.2"/>
		<g>
			<circle class="st8" cx="84" cy="155" r="16.6"/>
			<circle class="st8" cx="194.7" cy="155" r="16.6"/>
		</g>
		<g>
			<path class="st9" d="M110.4,170.3c0,0,13,21.1,28.8,0"/>
			<path class="st9" d="M139.3,170.3c0,0,13.1,21.1,28.8,0"/>
		</g>
		<g>
			<ellipse class="st10" cx="62.5" cy="175.6" rx="22.3" ry="4.5"/>
			<ellipse class="st10" cx="214.8" cy="175.6" rx="22.3" ry="4.5"/>
		</g>
		<path class="st11" d="M59.4,59.8"/>
		<path class="st12" d="M319.4,19.2H130.4l-71.7,40c0,0-18.2,64-17.3,70.3c0.9,6.3,5.5,1.4,20.7-33.3c14.2-32.4,8,39.2,23.3,27.8
			c14.1-10.5,19.8-66.6,30.6-34.7c10.8,31.9,16.9,70.6,27.7,33.3c3.1-10.9,8.3-24.5,18.5-30.8c10-6.1,18.1,2,21.2,11.7
			c1.6,5.1,1.7,12.4,5,16.8c0.8,1.1,2.2,1.9,3.5,1.6c1.4-0.3,2.3-1.5,3.1-2.7c7-10.8,8.2-24.3,13.5-36.1c2.3-5.2,6.7-3.8,9.6,0.1
			c8.8,11.5,12.8,26.2,16.2,40c0.3,1.2,1.8,9.9,3.9,9.4c1.8-0.4,1.9-8.3,2.1-9.6c1.2-11.7,0.8-24.4,4.4-35.6c0.6-2,1.6-5.3,4.1-5.4
			c1.7-0.1,3,1.5,3.9,2.9c7.1,11.2,9.1,24.9,14.8,37c2.3,4.8,3.8-5.8,4-7.4c0.6-4.4,0.7-8.8,0.8-13.2c0.3-8.2,0.5-16.4,3.3-24.2
			c0.6-1.8,1.6-3.7,3.3-4.3c1.3-0.4,2.7,0,3.8,0.7c2.2,1.3,3.5,3.6,4.7,5.9c7,13.4,12,27.9,17.1,42.1c0.3,0.7,0.6,1.5,1.1,2.1
			c0.6,0.6,1.5,0.9,2.2,0.5c0.7-0.4,0.9-1.2,1.1-2c1.2-5.8,0.1-11.7-0.3-17.5c-0.9-13.1-1.9-26.1-2.8-39.2
			c-0.2-3.3,0.5-11.1,5.7-9.8c2.3,0.6,3.9,2.6,5.3,4.5c7,9.6,13.7,19.5,20,29.6c2.6,4.2,5.3,8.6,9.2,11.7c0.8,0.6,1.7,1.2,2.6,1
			c4.5-0.8-17.4-66.8-20.6-73.3C326.7,26.5,323.5,18.7,319.4,19.2z"/>
		<line class="st13" x1="69.9" y1="62.8" x2="233.5" y2="62.8"/>
		<line class="st13" x1="317.9" y1="26.1" x2="258.7" y2="57.8"/>
	</g>
</g>
</svg>
