<?xml version="1.0" encoding="utf-8"?>
<!-- Generator: Adobe Illustrator 26.5.0, SVG Export Plug-In . SVG Version: 6.00 Build 0)  -->
<svg version="1.1" id="Layer_1" xmlns="http://www.w3.org/2000/svg" xmlns:xlink="http://www.w3.org/1999/xlink" x="0px" y="0px"
	 viewBox="0 0 500 500" style="enable-background:new 0 0 500 500;" xml:space="preserve">
<style type="text/css">
	.st0{fill:#FADCA7;stroke:#50362A;stroke-miterlimit:10;}
	.st1{fill:#FADCA7;stroke:#50362A;stroke-width:3.3794;stroke-linecap:round;stroke-linejoin:round;stroke-miterlimit:10;}
	.st2{fill:#FADCA7;stroke:#50362A;stroke-width:3.3292;stroke-linecap:round;stroke-linejoin:round;stroke-miterlimit:10;}
	.st3{fill:#FADCA7;stroke:#000000;stroke-width:0.5;stroke-linecap:round;stroke-linejoin:round;stroke-miterlimit:10;}
</style>
<g>
	<polygon class="st0" points="109.1,203.6 374.3,170 414.5,293 69.5,341 	"/>
	<path class="st1" d="M241.9,255.4"/>
	<g>
		<g>
			<path class="st2" d="M69.3,339.4c-1.9,4.6-0.2,10.2,4.2,10.2h241.6c0.7,0,1.3-0.2,1.9-0.5l95.2-51.6c3.3-1.8,3.7-5.5,2.2-9.7l0,0
				"/>
			<path class="st2" d="M113.1,210.7h184.8c0.5,0,1-0.1,1.5-0.4l72.8-39.5c3.9-2.1,2.7-9.6-1.5-9.6H185.9c-0.5,0-1,0.1-1.5,0.4
				l-72.8,39.5C107.7,203.2,108.9,210.7,113.1,210.7z"/>
		</g>
		<line class="st2" x1="302" y1="230.9" x2="312.5" y2="326.6"/>
		<line class="st2" x1="414.9" y1="289.4" x2="414.4" y2="287.8"/>
		<line class="st2" x1="414.4" y1="287.8" x2="374.2" y2="163.8"/>
		<path class="st2" d="M241.9,317.2"/>
		<polyline class="st2" points="69.2,339.3 109.2,204.4 68.9,340.8 		"/>
	</g>
</g>
<path class="st3" d="M256.5,303.6"/>
<path class="st3" d="M316,369.3"/>
<path class="st3" d="M102.2,369.3"/>
<path class="st3" d="M101.3,369.7"/>
</svg>
