<?xml version="1.0" encoding="UTF-8"?><svg id="Layer_1" xmlns="http://www.w3.org/2000/svg" viewBox="0 0 420.48 327.86"><defs><style>.cls-1{fill:#ae8980;}.cls-2{fill:none;stroke:#50362a;stroke-linecap:round;stroke-linejoin:round;stroke-width:7.09px;}.cls-3{fill:#fdd9c3;}.cls-4{fill:#50362a;}.cls-5{fill:#fbfbfb;}</style></defs><path class="cls-1" d="M184,23.61c19.47-13.23,37.06-.47,37.06-.47l133.73,67.63c5.75,3.19,4.68,18.39-.98,21.72-31.51,18.54-110.54,64.54-124.33,72.86-17.26,10.4-40.19-2.36-40.19-2.36L63.97,109.68c-6.27-3.76-6.33-17.62,0-21.28L184,23.61Z"/><path class="cls-4" d="M205.83,206.81l-2.11,92.95c-3.36,12.39-21.46,3.24-21.46,3.24,0,0-112.06-55.07-138.86-69.95-26.8-14.88-16.7-41.76-16.7-41.76l20.3-75.61s1.54-11.19,16.24-2.32c12.5,7.54,106.71,63.3,134.93,79.73,4.87,2.84,7.8,8.08,7.67,13.72Z"/><path class="cls-3" d="M224.23,302.75c47.08-25.04,144.99-74.12,144.99-74.12,0,0,25.72-9.56,21.05-40.64-1.77-11.78-11.69-47.82-18.71-71.73-1.47-5.02-7.93-5.17-12.32-2.46l-136.85,78.64c-5.65,3.37-10.49,10.41-9.86,17.07l-1.96,82.32c-.17,7.08,7.52,14.19,13.66,10.92Z"/><ellipse class="cls-4" cx="163.24" cy="102.86" rx="13" ry="28.37" transform="translate(-13.72 179.76) rotate(-55.7)"/><ellipse class="cls-4" cx="225.08" cy="61.92" rx="11.16" ry="24.34" transform="translate(47.1 212.98) rotate(-55.7)"/><path class="cls-2" d="M211.87,134.13s47.29,7.09,30.74-21.28c0,0,34.28,8.28,27.19-15.37"/><path class="cls-5" d="M203.94,5c6.4,0,12.79,1.55,18.48,4.47l150.75,77.53c10.08,5.18,17.56,14.43,20.52,25.37l20.38,75.26c4.98,18.4-3.74,38-20.75,46.61l-166.49,84.27c-5.63,2.85-11.94,4.35-18.24,4.35s-12.49-1.47-18.07-4.27L27.34,237c-17.28-8.64-26.05-28.42-20.84-47.03L29.24,108.77c2.92-10.41,10.03-19.36,19.52-24.55L184.55,9.95c5.93-3.24,12.63-4.95,19.38-4.95m0-5c-7.5,0-15,1.86-21.78,5.57L46.36,79.83c-10.73,5.87-18.64,15.82-21.93,27.59L1.69,188.62c-5.87,20.95,3.96,43.12,23.41,52.85l163.18,81.59c6.39,3.2,13.35,4.79,20.3,4.79s14.06-1.63,20.5-4.89l166.49-84.27c19.21-9.72,28.94-31.6,23.32-52.37l-20.38-75.26c-3.34-12.32-11.71-22.67-23.06-28.5L224.7,5.03c-6.52-3.35-13.64-5.03-20.76-5.03h0Z"/></svg>