<?xml version="1.0" encoding="UTF-8"?><svg id="Layer_1" xmlns="http://www.w3.org/2000/svg" viewBox="0 0 375.68 399.4"><defs><style>.cls-1{fill:#50362a;}.cls-1,.cls-2,.cls-3,.cls-4,.cls-5,.cls-6,.cls-7{stroke-linecap:round;stroke-linejoin:round;}.cls-1,.cls-2,.cls-5,.cls-6,.cls-7{stroke:#50362a;}.cls-1,.cls-2,.cls-7{stroke-width:3px;}.cls-2,.cls-3,.cls-5{fill:none;}.cls-3,.cls-4{stroke:#ae8980;}.cls-4,.cls-7{fill:#fadca7;}.cls-6{fill:#fff5e4;}</style></defs><g id="Group_248"><path id="Path_28" class="cls-4" d="M373.01,367.16l-51.57-65.59c-3.39-4.29-8.55-6.79-14.02-6.81H68.41c-5.5,0-10.7,2.5-14.12,6.81L2.72,367.16c-1.77,2.15-2.53,4.96-2.1,7.71H.62v16.42c0,4.2,3.4,7.61,7.6,7.61H367.49c4.2,0,7.61-3.4,7.61-7.6h0v-16.43h0c.33-2.75-.42-5.51-2.1-7.71Z"/><line id="Line_41" class="cls-3" x1="16.13" y1="370.86" x2="359.58" y2="370.86"/></g><g id="Group_247"><path id="Path_29" class="cls-6" d="M82.71,304.62l-.68,5.79,216.31,.44-.68-5.79"/><g id="Group_236"><path id="Path_30" class="cls-6" d="M297.58,304.62H82.71l10.27-12.8s194.26-.28,193.98-.09l10.62,12.9Z"/></g><g id="Group_237"><line id="Line_42" class="cls-5" x1="105.09" y1="292.25" x2="101.94" y2="304.01"/><line id="Line_43" class="cls-5" x1="119.65" y1="292.25" x2="118.79" y2="303.8"/><line id="Line_44" class="cls-5" x1="134.93" y1="292.25" x2="134.93" y2="303.91"/><line id="Line_45" class="cls-5" x1="150.64" y1="292.25" x2="150.64" y2="303.91"/><line id="Line_46" class="cls-5" x1="166.34" y1="292.25" x2="166.34" y2="303.91"/><line id="Line_47" class="cls-5" x1="182.05" y1="292.25" x2="182.05" y2="303.91"/><line id="Line_48" class="cls-5" x1="197.76" y1="292.25" x2="197.76" y2="303.91"/><line id="Line_49" class="cls-5" x1="213.47" y1="292.25" x2="213.47" y2="303.91"/><line id="Line_50" class="cls-5" x1="229.18" y1="292.25" x2="229.18" y2="303.91"/><line id="Line_51" class="cls-5" x1="274.73" y1="292.25" x2="277.87" y2="304.01"/><line id="Line_52" class="cls-5" x1="260.16" y1="292.25" x2="261.02" y2="303.8"/><line id="Line_53" class="cls-5" x1="244.88" y1="292.25" x2="244.88" y2="303.91"/></g></g><g id="Group_250"><g id="Group_240"><path id="Path_31" class="cls-6" d="M53.52,343.44l-.71,8.44s276.08-.85,275.57-.34l-.71-8.44"/><g id="Group_239"><path id="Path_32" class="cls-6" d="M327.58,342.94H53.62l10.61-13.52s253.23-.3,252.83-.1l10.52,13.62H53.62"/></g></g><g id="Group_241"><line id="Line_54" class="cls-5" x1="100.82" y1="329.84" x2="97.49" y2="342.18"/><line id="Line_55" class="cls-5" x1="116.18" y1="329.84" x2="115.28" y2="341.97"/><line id="Line_56" class="cls-5" x1="132.31" y1="329.84" x2="132.31" y2="342.08"/><line id="Line_57" class="cls-5" x1="148.89" y1="329.84" x2="148.89" y2="342.08"/><line id="Line_58" class="cls-5" x1="165.47" y1="329.84" x2="165.47" y2="342.08"/><line id="Line_59" class="cls-5" x1="182.05" y1="329.84" x2="182.05" y2="342.08"/><line id="Line_60" class="cls-5" x1="198.63" y1="329.84" x2="198.63" y2="342.08"/><line id="Line_61" class="cls-5" x1="215.21" y1="329.84" x2="215.21" y2="342.08"/><line id="Line_62" class="cls-5" x1="231.79" y1="329.84" x2="231.79" y2="342.08"/><line id="Line_63" class="cls-5" x1="279.87" y1="329.84" x2="283.19" y2="342.18"/><line id="Line_64" class="cls-5" x1="264.5" y1="329.84" x2="265.4" y2="341.97"/><line id="Line_65" class="cls-5" x1="248.37" y1="329.84" x2="248.37" y2="342.08"/></g></g><g id="Group_249"><path id="Path_33" class="cls-6" d="M65.14,323.07l-.71,6.11s251.48,.42,251.48,.13l-.71-6.11"/><g id="Group_243"><path id="Path_34" class="cls-6" d="M315.11,322.9H65.18l11.13-13.52s227.95-.3,227.55-.1l11.25,13.62H65.18"/></g><g id="Group_244"><line id="Line_66" class="cls-5" x1="100.36" y1="310.16" x2="97.04" y2="322.51"/><line id="Line_67" class="cls-5" x1="115.73" y1="310.16" x2="114.83" y2="322.29"/><line id="Line_68" class="cls-5" x1="131.86" y1="310.16" x2="131.86" y2="322.4"/><line id="Line_69" class="cls-5" x1="148.44" y1="310.16" x2="148.44" y2="322.4"/><line id="Line_70" class="cls-5" x1="165.02" y1="310.16" x2="165.02" y2="322.4"/><line id="Line_71" class="cls-5" x1="181.6" y1="310.16" x2="181.6" y2="322.4"/><line id="Line_72" class="cls-5" x1="198.18" y1="310.16" x2="198.18" y2="322.4"/><line id="Line_73" class="cls-5" x1="214.76" y1="310.16" x2="214.76" y2="322.4"/><line id="Line_74" class="cls-5" x1="231.34" y1="310.16" x2="231.34" y2="322.4"/><line id="Line_75" class="cls-5" x1="279.42" y1="310.16" x2="282.74" y2="322.51"/><line id="Line_76" class="cls-5" x1="264.05" y1="310.16" x2="264.95" y2="322.29"/><line id="Line_77" class="cls-5" x1="247.92" y1="310.16" x2="247.92" y2="322.4"/></g></g><g id="Group_251"><path id="Path_35" class="cls-6" d="M97.91,360.33l.71,7.2s181.16-.13,180.91,.11l1.05-7.42"/><path id="Path_36" class="cls-6" d="M280.36,360.2H98.12l8.01-14.02s166.52-.3,166.22,0l8.01,14.02H98.12"/></g><path id="Path_41" class="cls-2" d="M336.84,33.64V224.69c0,5.71-6.61,10.41-14.82,10.41H53.67c-8.11,0-14.82-4.71-14.82-10.51V33.64c0-5.81,6.61-10.51,14.82-10.51H322.02c8.11,0,14.82,4.71,14.82,10.51Z"/><path id="Path_40" class="cls-7" d="M349.35,1.5H26.33C16.52,1.5,8.51,7.11,8.51,14.12V244.12c0,6.91,8.01,12.62,17.82,12.62H349.35c9.81,0,17.82-5.61,17.82-12.62V14.12c0-6.91-8.01-12.62-17.82-12.62Zm-12.52,223.19c0,5.71-6.61,10.41-14.82,10.41H53.66c-8.11,0-14.82-4.71-14.82-10.51V33.64c0-5.81,6.61-10.51,14.82-10.51H322.02c8.11,0,14.82,4.71,14.82,10.51V224.69Z"/><path id="Path_42" class="cls-1" d="M336.84,33.64V224.69c0,5.71-6.61,10.41-14.82,10.41H53.67c-8.11,0-14.82-4.71-14.82-10.51V33.64c0-5.81,6.61-10.51,14.82-10.51H322.02c8.11,0,14.82,4.71,14.82,10.51Z"/></svg>